G75*
G70*
%OFA0B0*%
%FSLAX24Y24*%
%IPPOS*%
%LPD*%
%AMOC8*
5,1,8,0,0,1.08239X$1,0.0*
%
%ADD10C,0.0520*%
%ADD11C,0.0945*%
%ADD12C,0.0591*%
%ADD13C,0.0600*%
%ADD14C,0.0500*%
%ADD15C,0.0160*%
D10*
X011112Y003908D03*
X012862Y004908D03*
X013362Y004158D03*
X013862Y004908D03*
X014862Y003908D03*
X016862Y003908D03*
X016862Y005908D03*
X014862Y005908D03*
X011112Y005908D03*
D11*
X005563Y004001D03*
X005563Y009316D03*
D12*
X006862Y007908D03*
X007862Y007408D03*
X006862Y006908D03*
X007862Y006408D03*
X006862Y005908D03*
X007862Y005408D03*
D13*
X007362Y011358D02*
X007362Y011958D01*
X008362Y011958D02*
X008362Y011358D01*
X009362Y011358D02*
X009362Y011958D01*
X006362Y011958D02*
X006362Y011358D01*
X005362Y011358D02*
X005362Y011958D01*
X004362Y011958D02*
X004362Y011358D01*
X017812Y011658D02*
X018412Y011658D01*
X018412Y010658D02*
X017812Y010658D01*
X017812Y009658D02*
X018412Y009658D01*
X018412Y008658D02*
X017812Y008658D01*
X017812Y007658D02*
X018412Y007658D01*
X018412Y006658D02*
X017812Y006658D01*
D14*
X018112Y006658D02*
X015612Y006658D01*
X014862Y005908D01*
X013362Y005908D01*
X012862Y005408D01*
X012862Y004908D01*
X012862Y005408D02*
X012362Y005908D01*
X011112Y005908D01*
X009612Y006908D02*
X009112Y006408D01*
X007862Y006408D01*
X006862Y005908D02*
X006862Y005408D01*
X007612Y004658D01*
X011612Y004658D01*
X012112Y004158D01*
X013362Y004158D01*
X013612Y003908D01*
X014862Y003908D01*
X013862Y004908D02*
X015862Y004908D01*
X016862Y005908D01*
X016862Y003908D01*
X018112Y007658D02*
X019862Y007658D01*
X020862Y008658D01*
X020862Y013408D01*
X020112Y014158D01*
X006362Y014158D01*
X005362Y013158D01*
X005362Y011658D01*
X005362Y010908D01*
X007862Y008408D01*
X007862Y007408D01*
X008612Y007158D02*
X008862Y007408D01*
X008862Y008658D01*
X006362Y011158D01*
X006362Y011658D01*
X006362Y012658D01*
X007112Y013408D01*
X019612Y013408D01*
X020112Y012908D01*
X020112Y009408D01*
X019362Y008658D01*
X018112Y008658D01*
X018112Y009658D02*
X019112Y009658D01*
X019362Y009908D01*
X019362Y012408D01*
X019112Y012658D01*
X007612Y012658D01*
X007362Y012408D01*
X007362Y011658D01*
X007362Y011158D01*
X009612Y008908D01*
X009612Y006908D01*
X006862Y007908D02*
X005362Y007908D01*
X004362Y006908D01*
X007362Y003908D01*
X011112Y003908D01*
X004362Y006908D02*
X003362Y007908D01*
X003362Y009908D01*
X004362Y010908D01*
X004362Y011658D01*
D15*
X008342Y011638D02*
X008342Y010878D01*
X008335Y010878D01*
X009890Y009324D01*
X010028Y009186D01*
X010102Y009006D01*
X010102Y006811D01*
X010028Y006631D01*
X009528Y006131D01*
X009390Y005993D01*
X009210Y005918D01*
X008078Y005918D01*
X008054Y005908D01*
X008166Y005862D01*
X008316Y005712D01*
X008398Y005515D01*
X008398Y005302D01*
X008316Y005105D01*
X008166Y004955D01*
X007969Y004873D01*
X007756Y004873D01*
X007559Y004955D01*
X007409Y005105D01*
X007327Y005302D01*
X007327Y005515D01*
X007409Y005712D01*
X007559Y005862D01*
X007671Y005908D01*
X007559Y005955D01*
X007409Y006105D01*
X007327Y006302D01*
X007327Y006515D01*
X007358Y006588D01*
X007299Y006588D01*
X007166Y006455D01*
X006969Y006373D01*
X006966Y006373D01*
X006974Y006372D01*
X007045Y006349D01*
X007112Y006315D01*
X007172Y006271D01*
X007225Y006218D01*
X007269Y006157D01*
X007303Y006091D01*
X007326Y006020D01*
X007338Y005946D01*
X007338Y005917D01*
X006871Y005917D01*
X006871Y005900D01*
X007338Y005900D01*
X007338Y005871D01*
X007326Y005797D01*
X007303Y005726D01*
X007269Y005659D01*
X007225Y005599D01*
X007172Y005546D01*
X007112Y005502D01*
X007045Y005468D01*
X006974Y005445D01*
X006900Y005433D01*
X006871Y005433D01*
X006871Y005900D01*
X006854Y005900D01*
X006387Y005900D01*
X006387Y005871D01*
X006399Y005797D01*
X006422Y005726D01*
X006456Y005659D01*
X006500Y005599D01*
X006553Y005546D01*
X006613Y005502D01*
X006680Y005468D01*
X006751Y005445D01*
X006825Y005433D01*
X006854Y005433D01*
X006854Y005900D01*
X006854Y005917D01*
X006387Y005917D01*
X006387Y005946D01*
X006399Y006020D01*
X006422Y006091D01*
X006456Y006157D01*
X006500Y006218D01*
X006553Y006271D01*
X006613Y006315D01*
X006680Y006349D01*
X006751Y006372D01*
X006758Y006373D01*
X006756Y006373D01*
X006559Y006455D01*
X006409Y006605D01*
X006327Y006802D01*
X006327Y007015D01*
X006409Y007212D01*
X006559Y007362D01*
X006671Y007408D01*
X006647Y007418D01*
X005565Y007418D01*
X005055Y006908D01*
X007565Y004398D01*
X010895Y004398D01*
X010905Y004408D01*
X011320Y004408D01*
X011612Y004115D01*
X011612Y003701D01*
X011550Y003638D01*
X014510Y003638D01*
X014422Y003726D01*
X014422Y003908D01*
X014862Y003908D01*
X014862Y003908D01*
X014422Y003908D01*
X014422Y004091D01*
X014680Y004348D01*
X014862Y004348D01*
X014862Y003908D01*
X014862Y003908D01*
X014862Y003908D01*
X015302Y003908D01*
X015302Y003726D01*
X015215Y003638D01*
X016425Y003638D01*
X016362Y003701D01*
X016362Y004115D01*
X016372Y004125D01*
X016372Y004725D01*
X016140Y004493D01*
X015960Y004418D01*
X014080Y004418D01*
X014070Y004408D01*
X013735Y004408D01*
X013802Y004341D01*
X013802Y004158D01*
X013362Y004158D01*
X012922Y004158D01*
X012922Y003976D01*
X013180Y003718D01*
X013362Y003718D01*
X013362Y004158D01*
X013362Y004158D01*
X013362Y004158D01*
X012922Y004158D01*
X012922Y004341D01*
X012990Y004408D01*
X012655Y004408D01*
X012362Y004701D01*
X012362Y005115D01*
X012372Y005125D01*
X012372Y005205D01*
X012159Y005418D01*
X011330Y005418D01*
X011320Y005408D01*
X010905Y005408D01*
X010612Y005701D01*
X010612Y006115D01*
X010905Y006408D01*
X011320Y006408D01*
X011330Y006398D01*
X012460Y006398D01*
X012640Y006324D01*
X012862Y006101D01*
X013085Y006324D01*
X013265Y006398D01*
X014645Y006398D01*
X014655Y006408D01*
X014669Y006408D01*
X015197Y006936D01*
X015335Y007074D01*
X015515Y007148D01*
X017584Y007148D01*
X017608Y007158D01*
X017507Y007201D01*
X017355Y007353D01*
X017272Y007551D01*
X017272Y007766D01*
X017355Y007964D01*
X017507Y008116D01*
X017608Y008158D01*
X017507Y008201D01*
X017355Y008353D01*
X017272Y008551D01*
X017272Y008766D01*
X017355Y008964D01*
X017507Y009116D01*
X017608Y009158D01*
X017507Y009201D01*
X017355Y009353D01*
X017272Y009551D01*
X017272Y009766D01*
X017355Y009964D01*
X017507Y010116D01*
X017692Y010193D01*
X017628Y010214D01*
X017561Y010248D01*
X017500Y010292D01*
X017446Y010346D01*
X017402Y010407D01*
X017368Y010474D01*
X017344Y010546D01*
X017332Y010621D01*
X017332Y010638D01*
X018092Y010638D01*
X018092Y010678D01*
X017332Y010678D01*
X017332Y010696D01*
X017344Y010771D01*
X017368Y010843D01*
X017402Y010910D01*
X017446Y010971D01*
X017500Y011025D01*
X017561Y011069D01*
X017628Y011103D01*
X017692Y011124D01*
X017507Y011201D01*
X017355Y011353D01*
X017272Y011551D01*
X017272Y011766D01*
X017355Y011964D01*
X017507Y012116D01*
X017633Y012168D01*
X009860Y012168D01*
X009902Y012066D01*
X009902Y011251D01*
X009820Y011053D01*
X009668Y010901D01*
X009470Y010818D01*
X009255Y010818D01*
X009057Y010901D01*
X008905Y011053D01*
X008828Y011238D01*
X008807Y011174D01*
X008773Y011107D01*
X008729Y011046D01*
X008675Y010992D01*
X008614Y010948D01*
X008547Y010914D01*
X008475Y010890D01*
X008400Y010878D01*
X008382Y010878D01*
X008382Y011638D01*
X008342Y011638D01*
X008342Y011559D02*
X008382Y011559D01*
X008382Y011400D02*
X008342Y011400D01*
X008342Y011242D02*
X008382Y011242D01*
X008382Y011083D02*
X008342Y011083D01*
X008342Y010925D02*
X008382Y010925D01*
X008447Y010766D02*
X017344Y010766D01*
X017334Y010608D02*
X008606Y010608D01*
X008764Y010449D02*
X017380Y010449D01*
X017502Y010291D02*
X008923Y010291D01*
X009081Y010132D02*
X017546Y010132D01*
X017364Y009974D02*
X009240Y009974D01*
X009398Y009815D02*
X017293Y009815D01*
X017272Y009657D02*
X009557Y009657D01*
X009715Y009498D02*
X017294Y009498D01*
X017367Y009340D02*
X009874Y009340D01*
X010030Y009181D02*
X017553Y009181D01*
X017413Y009023D02*
X010095Y009023D01*
X010102Y008864D02*
X017313Y008864D01*
X017272Y008706D02*
X010102Y008706D01*
X010102Y008547D02*
X017274Y008547D01*
X017340Y008389D02*
X010102Y008389D01*
X010102Y008230D02*
X017477Y008230D01*
X017462Y008072D02*
X010102Y008072D01*
X010102Y007913D02*
X017334Y007913D01*
X017272Y007755D02*
X010102Y007755D01*
X010102Y007596D02*
X017272Y007596D01*
X017319Y007438D02*
X010102Y007438D01*
X010102Y007279D02*
X017428Y007279D01*
X016415Y006168D02*
X016362Y006115D01*
X016362Y006101D01*
X015659Y005398D01*
X014080Y005398D01*
X014070Y005408D01*
X013655Y005408D01*
X013362Y005115D01*
X013352Y005125D01*
X013352Y005205D01*
X013565Y005418D01*
X014645Y005418D01*
X014655Y005408D01*
X015070Y005408D01*
X015362Y005701D01*
X015362Y005715D01*
X015815Y006168D01*
X016415Y006168D01*
X016272Y006011D02*
X015658Y006011D01*
X015500Y005853D02*
X016114Y005853D01*
X015955Y005694D02*
X015356Y005694D01*
X015197Y005536D02*
X015797Y005536D01*
X014748Y006487D02*
X009884Y006487D01*
X010034Y006645D02*
X014906Y006645D01*
X015065Y006804D02*
X010100Y006804D01*
X010102Y006962D02*
X015223Y006962D01*
X015449Y007121D02*
X010102Y007121D01*
X009725Y006328D02*
X010825Y006328D01*
X010667Y006170D02*
X009567Y006170D01*
X009408Y006011D02*
X010612Y006011D01*
X010612Y005853D02*
X008175Y005853D01*
X008323Y005694D02*
X010619Y005694D01*
X010778Y005536D02*
X008389Y005536D01*
X008398Y005377D02*
X012200Y005377D01*
X012359Y005219D02*
X008363Y005219D01*
X008271Y005060D02*
X012362Y005060D01*
X012362Y004902D02*
X008038Y004902D01*
X007686Y004902D02*
X007062Y004902D01*
X006903Y005060D02*
X007453Y005060D01*
X007362Y005219D02*
X006745Y005219D01*
X006586Y005377D02*
X007327Y005377D01*
X007336Y005536D02*
X007158Y005536D01*
X007287Y005694D02*
X007402Y005694D01*
X007335Y005853D02*
X007550Y005853D01*
X007502Y006011D02*
X007327Y006011D01*
X007382Y006170D02*
X007260Y006170D01*
X007327Y006328D02*
X007085Y006328D01*
X007198Y006487D02*
X007327Y006487D01*
X006862Y006908D02*
X008362Y006908D01*
X008612Y007158D01*
X006871Y005853D02*
X006854Y005853D01*
X006854Y005694D02*
X006871Y005694D01*
X006854Y005536D02*
X006871Y005536D01*
X006567Y005536D02*
X006428Y005536D01*
X006438Y005694D02*
X006269Y005694D01*
X006390Y005853D02*
X006111Y005853D01*
X005952Y006011D02*
X006398Y006011D01*
X006465Y006170D02*
X005794Y006170D01*
X005635Y006328D02*
X006640Y006328D01*
X006527Y006487D02*
X005477Y006487D01*
X005318Y006645D02*
X006392Y006645D01*
X006327Y006804D02*
X005160Y006804D01*
X005109Y006962D02*
X006327Y006962D01*
X006371Y007121D02*
X005268Y007121D01*
X005426Y007279D02*
X006476Y007279D01*
X007220Y004743D02*
X012362Y004743D01*
X012479Y004585D02*
X007379Y004585D01*
X007537Y004426D02*
X012637Y004426D01*
X012922Y004268D02*
X011460Y004268D01*
X011612Y004109D02*
X012922Y004109D01*
X012948Y003951D02*
X011612Y003951D01*
X011612Y003792D02*
X013106Y003792D01*
X013362Y003792D02*
X013362Y003792D01*
X013362Y003718D02*
X013545Y003718D01*
X013802Y003976D01*
X013802Y004158D01*
X013362Y004158D01*
X013362Y003718D01*
X013362Y003951D02*
X013362Y003951D01*
X013362Y004109D02*
X013362Y004109D01*
X013362Y004158D02*
X013362Y004158D01*
X013362Y004598D01*
X013260Y004598D01*
X013362Y004701D01*
X013362Y005115D01*
X013362Y004701D01*
X013465Y004598D01*
X013362Y004598D01*
X013362Y004158D01*
X013362Y004158D01*
X013362Y004268D02*
X013362Y004268D01*
X013362Y004426D02*
X013362Y004426D01*
X013362Y004585D02*
X013362Y004585D01*
X013362Y004743D02*
X013362Y004743D01*
X013362Y004902D02*
X013362Y004902D01*
X013362Y005060D02*
X013362Y005060D01*
X013366Y005219D02*
X013466Y005219D01*
X013524Y005377D02*
X013624Y005377D01*
X012931Y006170D02*
X012794Y006170D01*
X012629Y006328D02*
X013096Y006328D01*
X014862Y004348D02*
X014862Y003908D01*
X015302Y003908D01*
X015302Y004091D01*
X015045Y004348D01*
X014862Y004348D01*
X014862Y004268D02*
X014862Y004268D01*
X014862Y004109D02*
X014862Y004109D01*
X014862Y003951D02*
X014862Y003951D01*
X014600Y004268D02*
X013802Y004268D01*
X013802Y004109D02*
X014441Y004109D01*
X014422Y003951D02*
X013777Y003951D01*
X013619Y003792D02*
X014422Y003792D01*
X015125Y004268D02*
X016372Y004268D01*
X016372Y004426D02*
X015979Y004426D01*
X016232Y004585D02*
X016372Y004585D01*
X016362Y004109D02*
X015284Y004109D01*
X015302Y003951D02*
X016362Y003951D01*
X016362Y003792D02*
X015302Y003792D01*
X017413Y010925D02*
X009693Y010925D01*
X009833Y011083D02*
X017589Y011083D01*
X017465Y011242D02*
X009899Y011242D01*
X009902Y011400D02*
X017335Y011400D01*
X017272Y011559D02*
X009902Y011559D01*
X009902Y011717D02*
X017272Y011717D01*
X017318Y011876D02*
X009902Y011876D01*
X009902Y012034D02*
X017425Y012034D01*
X009032Y010925D02*
X008569Y010925D01*
X008756Y011083D02*
X008892Y011083D01*
M02*
