%
M48
M72
T01C0.0320
T02C0.0354
T03C0.0400
T04C0.0630
T05C0.1260
%
T01
X11112Y3908
X12862Y4908
X13362Y4158
X13862Y4908
X14862Y3908
X16862Y3908
X16862Y5908
X14862Y5908
X11112Y5908
T02
X7862Y5408
X6862Y5908
X7862Y6408
X6862Y6908
X7862Y7408
X6862Y7908
T03
X6362Y11658
X5362Y11658
X4362Y11658
X7362Y11658
X8362Y11658
X9362Y11658
X18112Y11658
X18112Y10658
X18112Y9658
X18112Y8658
X18112Y7658
X18112Y6658
T04
X5563Y4001
X5563Y9316
T05
X4362Y8658
X4362Y4658
M30
